# xmcd
#
# Track frame offsets: 
#        150
#        21858
#        39309
#        62468
#        78987
#        96731
#        114781
#        133121
#        161904
#        178619
#
# Disc length: 2753 seconds
#
# Revision: 0
# Processed by: cddbd v1.5.2PL0 Copyright (c) Steve Scherf et al.
# Submitted via: ExactAudioCopy v1.0b3
#
DISCID=7d0abf0a
DTITLE=Duy Khanh, Thanh Tuyen - Kiep Sau
DYEAR=1900
DGENRE=
TTITLE0=Duy Khanh - Xin cam on doi
TTITLE1=Thanh Tuyen - Kiep sau
TTITLE2=Phi Long - Som muon toi cung ve
TTITLE3=Thanh Tuyen - Buon
TTITLE4=Phi Long - Hen mot mua Xuan (Toi se ve)
TTITLE5=Duy Khanh - Tinh duyen dau nam
TTITLE6=Duy Khanh - Vo ngua tren doi co non
TTITLE7=Thanh Tuyen - Cac anh di
TTITLE8=Duy Khanh - Bai ngoi ca que huong
TTITLE9=Duy Khanh - Han Do Ban
EXTD=
EXTT0=
EXTT1=
EXTT2=
EXTT3=
EXTT4=
EXTT5=
EXTT6=
EXTT7=
EXTT8=
EXTT9=
PLAYORDER=
